# xmcd CD database file
#
# Track frame offsets:
#	150
#	16110
#	36209
#	51797
#	71155
#	89318
#	110272
#	125531
#	143823
#	157705
#	176982
#	208075
#
# Disc length: 3555 seconds
#
# Revision: 0
# Processed by: cddbd v1.5.2PL0 Copyright (c) Steve Scherf et al.
# Submitted via: CDex 1.70beta2
#
DISCID=a10de10c
DTITLE=Dorota Miśkiewicz - Caminho
DYEAR=2008
DGENRE=Jazz
TTITLE0=Nucę, gwiżdżę sobie
TTITLE1=Budzić się i zasypiać (Z Tobą)
TTITLE2=Dwoje różnych
TTITLE3=Naganaga
TTITLE4=Suwalskie Bolero
TTITLE5=Chodze po domu i tęsknię
TTITLE6=Magda, proszę
TTITLE7=Tam gdzie mrok
TTITLE8=Jeśli chcesz spokojnie życie przejść
TTITLE9=Dla nikogo
TTITLE10=Caminho
TTITLE11=Magda, proszę (Video)
EXTD=YEAR: 2008
EXTT0=
EXTT1=
EXTT2=
EXTT3=
EXTT4=
EXTT5=
EXTT6=
EXTT7=
EXTT8=
EXTT9=
EXTT10=
EXTT11=
PLAYORDER=
